<svg width="116" height="59" viewBox="0 0 116 59" fill="none" xmlns="http://www.w3.org/2000/svg">
<path d="M104.667 53.5C104.667 56.4455 107.054 58.8333 110 58.8333C112.946 58.8333 115.333 56.4455 115.333 53.5C115.333 50.5545 112.946 48.1667 110 48.1667C107.054 48.1667 104.667 50.5545 104.667 53.5ZM62 5.5L62.7071 4.79289L62.4142 4.5H62V5.5ZM0.666667 5.5C0.666667 8.44552 3.05448 10.8333 6 10.8333C8.94552 10.8333 11.3333 8.44552 11.3333 5.5C11.3333 2.55448 8.94552 0.166667 6 0.166667C3.05448 0.166667 0.666667 2.55448 0.666667 5.5ZM110.707 52.7929L62.7071 4.79289L61.2929 6.20711L109.293 54.2071L110.707 52.7929ZM62 4.5H6V6.5H62V4.5Z" fill="#202020"/>
</svg>
