<svg width="125" height="130" viewBox="0 0 125 130" fill="none" xmlns="http://www.w3.org/2000/svg">
<path d="M0.666667 6C0.666667 3.05448 3.05448 0.666672 6 0.666672C8.94552 0.666672 11.3333 3.05448 11.3333 6C11.3333 8.94553 8.94552 11.3333 6 11.3333C3.05448 11.3333 0.666667 8.94553 0.666667 6ZM42 124V125H41.2596L41.0435 124.292L42 124ZM113.667 124C113.667 121.054 116.054 118.667 119 118.667C121.946 118.667 124.333 121.054 124.333 124C124.333 126.946 121.946 129.333 119 129.333C116.054 129.333 113.667 126.946 113.667 124ZM6.95648 5.7082L42.9565 123.708L41.0435 124.292L5.04352 6.29181L6.95648 5.7082ZM42 123H119V125H42V123Z" fill="#202020"/>
</svg>
